HIERARCHY
ROOT hip
{
  OFFSET 0.0 0.0 0.0
  CHANNELS 6 Xposition Yposition Zposition Zrotation Yrotation Xrotation
  JOINT abdomen
  {
    OFFSET 0.0 20.6881 -0.73152
    CHANNELS 3 Zrotation Xrotation Yrotation
    JOINT chest
    {
      OFFSET 0.0 11.7043 -0.48768
      CHANNELS 3 Zrotation Xrotation Yrotation
      JOINT neck
      {
        OFFSET 0.0 22.1894 -2.19456
        CHANNELS 3 Zrotation Xrotation Yrotation
        JOINT head
        {
          OFFSET -0.24384 7.07133 1.2192
          CHANNELS 3 Zrotation Xrotation Yrotation
          JOINT leftEye
          {
            OFFSET 4.14528 8.04674 8.04672
            CHANNELS 3 Zrotation Xrotation Yrotation
            End Site
            {
              OFFSET 1.0 0.0 0.0
            }
          }
          JOINT rightEye
          {
            OFFSET -3.6576 8.04674 8.04672
            CHANNELS 3 Zrotation Xrotation Yrotation
            End Site
            {
              OFFSET 1.0 0.0 0.0
            }
          }
        }
      }
      JOINT rCollar
      {
        OFFSET -2.68224 19.2634 -4.8768
        CHANNELS 3 Zrotation Xrotation Yrotation
        JOINT rShldr
        {
          OFFSET -8.77824 -1.95073 1.46304
          CHANNELS 3 Zrotation Xrotation Yrotation
          JOINT rForeArm
          {
            OFFSET -28.1742 -1.7115 0.48768
            CHANNELS 3 Zrotation Xrotation Yrotation
            JOINT rHand
            {
              OFFSET -22.5879 0.773209 7.07136
              CHANNELS 3 Zrotation Xrotation Yrotation
              JOINT rThumb1
              {
                OFFSET -1.2192 -0.487915 3.41376
                CHANNELS 3 Zrotation Xrotation Yrotation
                JOINT rThumb2
                {
                  OFFSET -3.37035 -0.52449 3.41376
                  CHANNELS 3 Zrotation Xrotation Yrotation
                  End Site
                  {
                    OFFSET -1.78271 -1.18214 1.43049
                  }
                }
              }
              JOINT rIndex1
              {
                OFFSET -7.75947 0.938293 5.60832
                CHANNELS 3 Zrotation Xrotation Yrotation
                JOINT rIndex2
                {
                  OFFSET -2.54057 -0.884171 1.56538
                  CHANNELS 3 Zrotation Xrotation Yrotation
                  End Site
                  {
                    OFFSET -1.62519 -0.234802 1.16502
                  }
                }
              }
              JOINT rMid1
              {
                OFFSET -8.24714 1.18213 3.41376
                CHANNELS 3 Zrotation Xrotation Yrotation
                JOINT rMid2
                {
                  OFFSET -3.10165 -0.590103 1.0647
                  CHANNELS 3 Zrotation Xrotation Yrotation
                  End Site
                  {
                    OFFSET -2.48547 -0.328903 0.83742
                  }
                }
              }
              JOINT rRing1
              {
                OFFSET -8.82822 0.546677 1.51678
                CHANNELS 3 Zrotation Xrotation Yrotation
                JOINT rRing2
                {
                  OFFSET -2.60934 -0.819778 -0.0198488
                  CHANNELS 3 Zrotation Xrotation Yrotation
                  End Site
                  {
                    OFFSET -2.33842 -0.294052 0.168128
                  }
                }
              }
              JOINT rPinky1
              {
                OFFSET -8.27202 -0.0477905 -0.4584
                CHANNELS 3 Zrotation Xrotation Yrotation
                JOINT rPinky2
                {
                  OFFSET -1.82734 -0.647385 -0.700984
                  CHANNELS 3 Zrotation Xrotation Yrotation
                  End Site
                  {
                    OFFSET -1.69225 -0.51767 -0.607171
                  }
                }
              }
            }
          }
        }
      }
      JOINT lCollar
      {
        OFFSET 2.68224 19.2634 -4.8768
        CHANNELS 3 Zrotation Xrotation Yrotation
        JOINT lShldr
        {
          OFFSET 8.77824 -1.95073 1.46304
          CHANNELS 3 Zrotation Xrotation Yrotation
          JOINT lForeArm
          {
            OFFSET 28.1742 -1.7115 0.48768
            CHANNELS 3 Zrotation Xrotation Yrotation
            JOINT lHand
            {
              OFFSET 22.5879 0.773209 7.07136
              CHANNELS 3 Zrotation Xrotation Yrotation
              JOINT lThumb1
              {
                OFFSET 1.2192 -0.487915 3.41376
                CHANNELS 3 Zrotation Xrotation Yrotation
                JOINT lThumb2
                {
                  OFFSET 3.37035 -0.52449 3.41376
                  CHANNELS 3 Zrotation Xrotation Yrotation
                  End Site
                  {
                    OFFSET 1.78271 -1.18214 1.43049
                  }
                }
              }
              JOINT lIndex1
              {
                OFFSET 7.75947 0.938293 5.60832
                CHANNELS 3 Zrotation Xrotation Yrotation
                JOINT lIndex2
                {
                  OFFSET 2.54057 -0.884171 1.56538
                  CHANNELS 3 Zrotation Xrotation Yrotation
                  End Site
                  {
                    OFFSET 1.62519 -0.234802 1.16502
                  }
                }
              }
              JOINT lMid1
              {
                OFFSET 8.24714 1.18213 3.41376
                CHANNELS 3 Zrotation Xrotation Yrotation
                JOINT lMid2
                {
                  OFFSET 3.10165 -0.590103 1.0647
                  CHANNELS 3 Zrotation Xrotation Yrotation
                  End Site
                  {
                    OFFSET 2.48547 -0.328903 0.83742
                  }
                }
              }
              JOINT lRing1
              {
                OFFSET 8.82822 0.546677 1.51678
                CHANNELS 3 Zrotation Xrotation Yrotation
                JOINT lRing2
                {
                  OFFSET 2.60934 -0.819778 -0.0198488
                  CHANNELS 3 Zrotation Xrotation Yrotation
                  End Site
                  {
                    OFFSET 2.33842 -0.294052 0.168128
                  }
                }
              }
              JOINT lPinky1
              {
                OFFSET 8.27202 -0.0477905 -0.4584
                CHANNELS 3 Zrotation Xrotation Yrotation
                JOINT lPinky2
                {
                  OFFSET 1.82734 -0.647385 -0.700984
                  CHANNELS 3 Zrotation Xrotation Yrotation
                  End Site
                  {
                    OFFSET 1.69225 -0.51767 -0.607171
                  }
                }
              }
            }
          }
        }
      }
    }
  }
  JOINT rButtock
  {
    OFFSET -8.77824 4.35084 1.2192
    CHANNELS 3 Zrotation Xrotation Yrotation
    JOINT rThigh
    {
      OFFSET 0.0 -1.70687 -2.19456
      CHANNELS 3 Zrotation Xrotation Yrotation
      JOINT rShin
      {
        OFFSET 0.0 -36.8199 0.73152
        CHANNELS 3 Zrotation Xrotation Yrotation
        JOINT rFoot
        {
          OFFSET 0.73152 -45.1104 -5.12064
          CHANNELS 3 Zrotation Xrotation Yrotation
          End Site
          {
            OFFSET -1.1221 -3.69964 12.103
          }
        }
      }
    }
  }
  JOINT lButtock
  {
    OFFSET 8.77824 4.35084 1.2192
    CHANNELS 3 Zrotation Xrotation Yrotation
    JOINT lThigh
    {
      OFFSET 0.0 -1.70687 -2.19456
      CHANNELS 3 Zrotation Xrotation Yrotation
      JOINT lShin
      {
        OFFSET 0.0 -36.8199 0.73152
        CHANNELS 3 Zrotation Xrotation Yrotation
        JOINT lFoot
        {
          OFFSET -0.73152 -45.1104 -5.12064
          CHANNELS 3 Zrotation Xrotation Yrotation
          End Site
          {
            OFFSET 1.1221 -3.69964 12.103
          }
        }
      }
    }
  }
}
MOTION
Frames: 4
Frame Time: 0.00833333
0.0 82.3486 0.0 -183.273 53.728 -177.294 -6.39289 3.8139 -10.1821 21.874 -22.2576 1.66737 -7.64539 3.0327 -3.48128 -5.01422 33.9757 2.49081 -0.0 0.0 0.0 -0.0 0.0 0.0 -1.52619e-13 -4.23791e-13 2.55935e-14 81.4346 64.7569 -38.044 -16.3043 -8.973 30.3177 -0.42911 -18.2988 -2.66385 4.7028e-10 -6.09541e-10 -3.46203e-11 8.1332e-10 -1.05688e-09 -5.46022e-11 4.70283e-10 -6.09537e-10 -3.46299e-11 7.73091 5.47488 0.417314 4.70281e-10 -6.09537e-10 -3.46203e-11 2.90554 0.965183 0.102902 4.70288e-10 -6.09537e-10 -3.46235e-11 10.2786 0.731801 0.0259123 4.70283e-10 -6.09536e-10 -3.46235e-11 2.22167 -0.733487 -0.20892 -1.52724e-13 -4.23828e-13 2.52953e-14 -89.6792 -1.45653 33.0581 15.4158 -8.15564 -28.4489 0.0264567 4.63812 -0.653287 1.50026e-09 3.43598e-09 1.02654e-09 2.59616e-09 5.93806e-09 1.77014e-09 1.50026e-09 3.43599e-09 1.02654e-09 -7.73091 5.47488 -0.417314 1.50026e-09 3.43599e-09 1.02654e-09 -2.90554 0.965183 -0.102902 1.50026e-09 3.43599e-09 1.02654e-09 -10.2786 0.731801 -0.0259123 1.50026e-09 3.43599e-09 1.02654e-09 -2.22167 -0.733487 0.20892 -2.03217e-16 0.0 -3.88251e-19 3.81377 -14.1871 0.888929 -0.649307 51.5528 1.1192 3.14416 15.9634 -18.3796 2.03217e-16 0.0 3.88251e-19 -12.1264 -19.5308 -24.0491 0.052579 23.3735 0.380866 2.77718 10.3174 -7.55545
0.5550000000000068 82.2133 -0.5418000000000003 -184.048 55.172 -177.517 -6.9321 3.87389 -9.99834 21.4736 -22.1966 1.59225 -7.61114 3.01419 -3.4437 -4.39199 33.6696 2.1811 -0.0 0.0 0.0 -0.0 0.0 0.0 -1.81352e-13 5.10249e-14 -1.45569e-13 80.9778 64.2721 -37.2547 -16.2661 -8.93664 30.2368 -0.416739 -18.0453 -2.62432 1.24506e-10 -1.1247e-10 1.56909e-10 2.09921e-10 -1.95794e-10 2.7465e-10 1.24513e-10 -1.12467e-10 1.56899e-10 7.73091 5.47488 0.417314 1.24507e-10 -1.12468e-10 1.56908e-10 2.90554 0.965183 0.102902 1.24519e-10 -1.12468e-10 1.56904e-10 10.2786 0.731801 0.0259123 1.24507e-10 -1.12465e-10 1.56907e-10 2.22167 -0.733487 -0.20892 -1.81442e-13 5.10067e-14 -1.45855e-13 -88.6758 -1.02787 32.2631 15.6839 -8.39859 -29.0042 0.0255071 4.54483 -0.6401 2.16552e-09 5.36784e-10 4.95961e-11 3.74452e-09 9.07328e-10 7.40365e-11 2.16552e-09 5.36792e-10 4.95993e-11 -7.73091 5.47488 -0.417314 2.16552e-09 5.36788e-10 4.95928e-11 -2.90554 0.965183 -0.102902 2.16552e-09 5.36791e-10 4.95965e-11 -10.2786 0.731801 -0.0259123 2.16552e-09 5.36789e-10 4.95921e-11 -2.22167 -0.733487 0.20892 -2.03217e-16 0.0 -3.88251e-19 3.14447 -17.6047 -0.477906 -0.717713 53.872 1.26036 2.63624 14.3024 -18.7888 2.03217e-16 0.0 3.88251e-19 -12.6949 -19.3711 -23.8161 0.0355829 23.5655 0.308782 1.83691 12.5987 -3.543
1.1030000000000086 82.125 -0.998800000000001 -184.511 56.6147 -177.426 -7.22247 3.75095 -9.83133 21.0501 -22.114 1.5297 -7.59723 2.99706 -3.38945 -3.75911 33.3441 1.91243 -0.0 0.0 0.0 -0.0 0.0 0.0 -1.92794e-13 8.02665e-13 -3.86838e-13 80.3067 63.6892 -36.277 -16.2425 -8.91435 30.1866 -0.404047 -17.7811 -2.58325 -3.06991e-10 5.94253e-10 2.86649e-10 -5.41866e-10 1.02793e-09 4.9684e-10 -3.06976e-10 5.94256e-10 2.86636e-10 7.73091 5.47488 0.417314 -3.06991e-10 5.94254e-10 2.86647e-10 2.90554 0.965183 0.102902 -3.06971e-10 5.94254e-10 2.86641e-10 10.2786 0.731801 0.0259123 -3.06995e-10 5.94257e-10 2.86649e-10 2.22167 -0.733487 -0.20892 -1.92861e-13 8.0267e-13 -3.87111e-13 -87.5816 -0.804145 31.4297 15.9756 -8.66664 -29.6165 0.0250858 4.49896 -0.633618 3.03929e-09 -4.09069e-09 -1.45387e-09 5.25291e-09 -7.12003e-09 -2.53542e-09 3.0393e-09 -4.09068e-09 -1.45387e-09 -7.73091 5.47488 -0.417314 3.0393e-09 -4.09069e-09 -1.45388e-09 -2.90554 0.965183 -0.102902 3.03929e-09 -4.09068e-09 -1.45387e-09 -10.2786 0.731801 -0.0259123 3.0393e-09 -4.09068e-09 -1.45388e-09 -2.22167 -0.733487 0.20892 -2.03217e-16 0.0 -3.88251e-19 2.62798 -21.216 -2.05107 -0.760356 55.4411 1.41401 1.69608 11.5777 -17.8982 2.03217e-16 0.0 3.88251e-19 -13.0541 -19.5345 -23.5593 0.013467 23.6968 0.172891 0.238211 14.8619 1.58129
1.703000000000003 82.082 -1.4131 -184.717 58.0297 -177.178 -7.37238 3.60165 -9.66818 20.6355 -22.0487 1.48269 -7.57949 2.98736 -3.33589 -3.15415 33.0212 1.65954 -0.0 0.0 0.0 -0.0 0.0 0.0 -1.8575e-13 1.4591e-12 -5.881e-13 79.6526 63.0714 -35.325 -16.2278 -8.90053 30.155 -0.393394 -17.5541 -2.54809 -6.87755e-10 1.21705e-09 3.68359e-10 -1.20445e-09 2.10626e-09 6.36074e-10 -6.87731e-10 1.21706e-09 3.68343e-10 7.73091 5.47488 0.417314 -6.87755e-10 1.21705e-09 3.68356e-10 2.90554 0.965183 0.102902 -6.87728e-10 1.21705e-09 3.68348e-10 10.2786 0.731801 0.0259123 -6.87763e-10 1.21706e-09 3.6836e-10 2.22167 -0.733487 -0.20892 -1.85791e-13 1.45913e-12 -5.88361e-13 -86.4867 -0.641984 30.583 16.2709 -8.94238 -30.2441 0.0243702 4.43582 -0.624688 3.68841e-09 -8.16669e-09 -2.78585e-09 6.37322e-09 -1.41895e-08 -4.84659e-09 3.68841e-09 -8.16669e-09 -2.78585e-09 -7.73091 5.47488 -0.417314 3.68841e-09 -8.1667e-09 -2.78587e-09 -2.90554 0.965183 -0.102902 3.68841e-09 -8.16669e-09 -2.78586e-09 -10.2786 0.731801 -0.0259123 3.68842e-09 -8.16669e-09 -2.78586e-09 -2.22167 -0.733487 0.20892 -2.03217e-16 0.0 -3.88251e-19 2.15385 -24.6805 -3.73005 -0.777844 56.2177 1.55359 0.761768 8.4456 -16.5731 2.03217e-16 0.0 3.88251e-19 -13.2798 -19.7138 -23.3194 -0.00809549 23.7329 0.0143312 -1.7258 16.2224 6.99177
